<svg width="24" height="25" viewBox="0 0 24 25" fill="none" xmlns="http://www.w3.org/2000/svg">
<path d="M12 22.291C17.5228 22.291 22 17.8139 22 12.291C22 6.76817 17.5228 2.29102 12 2.29102C6.47715 2.29102 2 6.76817 2 12.291C2 17.8139 6.47715 22.291 12 22.291Z" stroke="#C34482" stroke-width="2" stroke-linecap="round" stroke-linejoin="round"/>
<path d="M9.08984 9.2911C9.32495 8.62276 9.789 8.0592 10.3998 7.70023C11.0106 7.34126 11.7287 7.21004 12.427 7.32981C13.1253 7.44958 13.7587 7.81262 14.2149 8.35462C14.6712 8.89663 14.9209 9.58262 14.9198 10.2911C14.9198 12.2911 11.9198 13.2911 11.9198 13.2911" stroke="#C34482" stroke-width="2" stroke-linecap="round" stroke-linejoin="round"/>
<path d="M12 17.291H12.01" stroke="#C34482" stroke-width="2" stroke-linecap="round" stroke-linejoin="round"/>
</svg>
