<svg width="303" height="166" viewBox="0 0 303 166" fill="none" xmlns="http://www.w3.org/2000/svg">
<g clip-path="url(#clip0_453_5627)">
<rect width="266.614" height="168.117" rx="11.6034" transform="matrix(1 0 0.207912 0.978148 0.514648 0.832031)" fill="#CE8800"/>
<g opacity="0.03">
<path d="M37.8244 161.192C35.9805 162.592 33.8506 162.866 31.3857 161.256C28.9321 159.656 28.273 157.479 28.5169 154.799C25.8734 155.384 23.3728 155.366 21.2137 152.951C19.3716 150.884 19.2766 148.853 20.2465 146.905C20.3798 146.74 20.5225 146.576 20.6559 146.411C21.4993 145.716 22.5056 145.039 23.7044 145.268C25.8959 145.679 25.3103 144.728 25.1134 143.274C24.8466 141.271 24.4472 140.448 22.2242 140.768C21.4172 140.887 20.2985 140.155 19.3195 139.816C19.0259 139.579 18.7322 139.341 18.4385 139.103C16.799 137.109 15.9914 135.069 17.0411 133.057C18.2013 130.816 20.4795 130.624 23.4817 131.374C22.1784 128.63 21.7699 126.224 23.9003 124.633C25.7146 123.27 27.8644 123.617 30.1327 124.962C30.336 125.127 30.5413 125.3 30.7446 125.465C31.3528 126.435 32.4554 127.486 32.4943 128.374C32.5884 130.752 33.6566 130.322 35.3689 130.459C37.4331 130.624 37.4867 130.084 37.0709 128.392C36.8387 127.432 37.3975 126.453 37.6029 125.483C37.7417 125.3 37.8824 125.127 38.0212 124.944C39.8328 123.48 41.9685 123.233 44.4388 124.825C46.8979 126.407 47.6112 128.575 47.354 131.237C49.9593 130.779 52.4608 130.67 54.6237 133.103C56.4658 135.17 56.5775 137.191 55.6602 139.167C55.4973 139.368 55.3324 139.56 55.1695 139.761C54.2412 140.146 53.3536 140.941 52.3858 140.832C50.28 140.603 50.4504 141.316 50.842 143.027C51.2219 144.682 51.2882 145.478 53.3249 145.25C54.2573 145.149 55.4738 145.945 56.5654 146.329C56.8139 146.53 57.0717 146.731 57.3222 146.942C59.1849 149.018 59.9204 151.158 58.7233 153.226C57.5411 155.274 55.4229 155.604 52.4964 154.726C53.6446 157.488 54.0877 160.012 51.8077 161.604C50.0651 162.821 48.0033 162.491 45.841 161.293C45.5247 161.037 45.2197 160.79 44.9035 160.534C43.5825 159.07 42.9746 157.442 42.8935 155.741C39.9546 155.421 37.5876 155.503 38.6688 159.226C38.8014 159.674 38.3996 160.159 38.2369 160.625C38.1187 160.817 37.9725 161.009 37.8244 161.192ZM49.7582 152.622C47.9043 151.643 50.711 148.57 47.0341 148.561C45.1525 148.552 44.8565 149.183 45.2255 150.875C46.0099 154.433 48.3897 151.067 49.7582 152.622ZM30.2708 152.668C30.993 151.314 35.3485 154.515 33.7813 150.134C32.5356 146.649 30.8465 149.393 29.4123 148.497C30.2244 149.942 29.9406 151.158 30.2708 152.668ZM45.8241 133.542C41.5691 133.981 41.6759 133.999 41.7643 134.987C42.0633 138.417 44.4608 137.246 46.6421 137.786C45.6866 136.194 45.8874 134.895 45.8241 133.542ZM26.1292 133.359C26.7009 134.905 27.1343 136.24 27.2081 137.731C28.1815 136.679 31.1368 139.277 30.8134 135.819C30.401 131.548 27.438 134.941 26.1292 133.359ZM36.2036 142.789C36.4729 143.704 36.0457 144.993 37.8682 144.637C38.7924 144.454 40.1781 145.122 39.5937 143.164C39.1996 141.838 39.0233 141.316 37.483 141.417C36.3278 141.481 35.4628 141.371 36.2036 142.789Z" fill="white"/>
<path d="M30.7562 125.474C30.5529 125.31 30.3476 125.136 30.1443 124.971C30.0715 124.761 30.049 124.523 29.926 124.34C28.3151 121.953 27.7975 119.694 29.6911 117.956C31.2319 116.538 33.3059 116.529 35.4662 117.937C38.1153 119.666 38.5581 121.925 37.9902 124.313C37.9469 124.505 38.0141 124.733 38.0308 124.944C37.892 125.127 37.7513 125.301 37.6125 125.483C35.5139 126.389 33.2265 126.362 30.7562 125.474Z" fill="white"/>
<path d="M57.3412 146.942C57.0927 146.741 56.8349 146.54 56.5845 146.329C55.1566 144.143 54.7087 141.948 55.1885 139.762C55.3515 139.561 55.5164 139.369 55.6793 139.167C56.362 138.948 57.0144 138.673 57.7314 138.527C59.7612 138.134 61.6915 138.637 63.2979 140.475C64.7685 142.158 65.1437 143.924 64.398 145.607C63.5844 147.454 61.8679 147.957 59.6709 147.564C58.8863 147.436 58.1173 147.162 57.3412 146.942Z" fill="white"/>
<path d="M44.931 160.534C45.2473 160.79 45.5542 161.046 45.8685 161.293C46.1176 161.805 46.3668 162.318 46.6179 162.839C47.6717 165.025 47.7304 166.973 46.0338 168.318C44.4728 169.553 42.5126 169.525 40.445 168.245C38.2044 166.854 37.4798 164.897 37.6642 162.729C37.705 162.217 37.7644 161.705 37.8145 161.192C37.9607 161 38.1088 160.817 38.2644 160.625C40.2862 159.711 42.5176 159.738 44.931 160.534Z" fill="white"/>
<path d="M20.6671 146.421C20.5338 146.585 20.3911 146.75 20.2578 146.915C17.7603 147.747 15.236 148.497 12.6454 145.68C11.1378 144.042 10.7287 142.25 11.4837 140.567C12.7696 137.685 15.5989 138.326 18.4705 139.122C18.7642 139.359 19.0578 139.597 19.3515 139.835C20.6877 142.03 21.0702 144.225 20.6671 146.421Z" fill="white"/>
<path d="M67.4676 157.278C68.039 159.702 66.2687 161.888 63.781 161.842C61.4241 161.796 58.8846 159.747 58.3498 157.452C57.7766 155.019 59.5394 152.842 62.0385 152.897C64.3934 152.933 66.9216 154.973 67.4676 157.278Z" fill="white"/>
<path d="M20.0084 161.796C17.5642 161.824 14.8907 159.628 14.4674 157.241C14.0562 154.954 15.7157 152.951 18.0476 152.924C20.4918 152.896 23.1559 155.092 23.5886 157.479C23.9998 159.766 22.3422 161.778 20.0084 161.796Z" fill="white"/>
<path d="M32.381 164.357C32.9839 166.754 31.2756 168.967 28.8069 168.967C26.4785 168.967 23.93 166.964 23.3505 164.678C22.7476 162.281 24.4652 160.068 26.9246 160.068C29.253 160.068 31.7995 162.062 32.381 164.357Z" fill="white"/>
<path d="M57.5181 133.212C55.007 133.057 52.454 130.725 52.1916 128.346C51.9448 126.041 53.7773 124.148 56.1275 124.294C58.6386 124.45 61.201 126.782 61.454 129.16C61.7008 131.465 59.8664 133.35 57.5181 133.212Z" fill="white"/>
<path d="M11.8438 124.313C14.1341 124.221 16.7305 126.142 17.4056 128.438C18.1055 130.807 16.4969 133.094 14.0496 133.194C11.6284 133.286 8.92173 131.155 8.41041 128.749C7.9263 126.471 9.52545 124.404 11.8438 124.313Z" fill="white"/>
<path d="M52.5564 121.614C53.0622 124.038 51.2429 126.169 48.7508 126.06C46.371 125.95 43.9005 123.874 43.4219 121.578C42.916 119.154 44.7447 117.023 47.2274 117.132C49.6072 117.242 52.0797 119.328 52.5564 121.614Z" fill="white"/>
<path d="M17.814 117.16C20.2753 117.169 22.9173 119.392 23.3125 121.779C23.6863 124.066 21.9949 126.051 19.6625 126.032C17.2012 126.023 14.5593 123.8 14.1641 121.413C13.7903 119.126 15.493 117.151 17.814 117.16Z" fill="white"/>
<path d="M61.6627 164.458C62.2134 166.873 60.4299 169.041 57.9476 168.977C55.5869 168.912 53.0754 166.864 52.5593 164.568C52.0067 162.144 53.7828 159.985 56.2745 160.049C58.6446 160.113 61.1467 162.162 61.6627 164.458Z" fill="white"/>
<path d="M69.5798 154.369C66.9615 154.15 65.176 152.832 64.5027 150.28C63.864 147.847 65.4716 145.908 67.9979 146.091C70.6384 146.283 72.4215 147.765 72.9133 150.299C73.409 152.851 72.0973 154.159 69.5798 154.369Z" fill="white"/>
<path d="M14.3836 150.162C14.7238 152.686 13.7433 154.232 11.1008 154.25C8.48635 154.269 6.64555 152.823 6.07118 150.253C5.49875 147.692 6.66867 146.201 9.28662 146.155C11.9178 146.128 13.5945 147.637 14.3836 150.162Z" fill="white"/>
<path d="M66.4742 140.064C63.8369 139.798 62.0735 138.454 61.4469 135.902C60.855 133.469 62.5079 131.566 65.0419 131.786C67.6921 132.024 69.4455 133.542 69.898 136.066C70.3375 138.618 68.9807 139.89 66.4742 140.064Z" fill="white"/>
<path d="M6.44911 131.795C9.08678 132.106 10.8785 133.496 11.32 136.057C11.7634 138.628 10.4712 140.027 7.85408 139.945C5.20697 139.853 3.44573 138.298 2.98746 135.746C2.52141 133.158 3.89736 131.932 6.44911 131.795Z" fill="white"/>
<path d="M28.7355 114.343C29.036 117.032 27.9821 118.541 25.3354 118.495C22.698 118.45 20.881 116.94 20.3647 114.379C19.8558 111.809 21.0896 110.355 23.7211 110.373C26.3994 110.391 27.9947 112.001 28.7355 114.343Z" fill="white"/>
<path d="M43.4014 114.489C43.6929 117.004 42.6442 118.45 40.0546 118.541C37.5847 118.623 35.2424 116.666 34.9216 114.233C34.5981 111.699 35.8249 110.3 38.4194 110.364C41.0513 110.428 42.6836 111.992 43.4014 114.489Z" fill="white"/>
<path d="M73.9576 139.286C76.0736 139.606 77.7235 140.814 78.3234 143.064C78.8672 145.094 77.1383 147.079 75.0414 146.805C72.733 146.503 71.1248 145.14 70.6185 142.89C70.1915 140.969 71.8139 139.231 73.9576 139.286Z" fill="white"/>
<path d="M5.19929 143.027C5.31713 145.341 4.37126 146.786 2.05727 146.722C-0.238017 146.658 -1.98721 145.204 -2.40549 142.972C-2.82377 140.74 -1.63443 139.341 0.666323 139.387C2.98577 139.432 4.46066 140.96 5.19929 143.027Z" fill="white"/>
<path d="M29.4679 103.531C31.7759 103.787 33.5509 104.967 34.0779 107.227C34.5936 109.477 33.4627 110.931 31.1814 110.977C28.8907 111.022 27.1025 109.605 26.5701 107.364C26.0337 105.104 27.2694 103.879 29.4679 103.531Z" fill="white"/>
<path d="M13.7183 114.389C13.9304 116.575 13.0504 118.066 10.7691 118.111C8.48779 118.157 6.70153 116.749 6.18233 114.526C5.65184 112.294 6.78282 110.84 9.05089 110.776C11.3303 110.721 12.8905 112.166 13.7183 114.389Z" fill="white"/>
<path d="M52.9202 110.657C55.2395 110.922 57.0333 112.102 57.5602 114.361C58.0872 116.62 56.9414 118.093 54.6508 118.139C52.3527 118.194 50.5513 116.758 50.0095 114.517C49.4712 112.248 50.7163 111.023 52.9202 110.657Z" fill="white"/>
<path d="M12.4006 160.763C14.8422 161.12 16.5802 162.345 17.0024 164.595C17.4207 166.827 16.2333 168.236 13.94 168.181C11.6579 168.135 9.90871 166.681 9.46979 164.44C9.02697 162.181 10.3494 161.056 12.4006 160.763Z" fill="white"/>
<path d="M63.4747 125.383C61.1553 125.118 59.369 123.928 58.842 121.669C58.3244 119.41 59.4721 117.946 61.7514 117.892C64.0515 117.846 65.8509 119.273 66.3853 121.523C66.9236 123.791 65.6805 125.026 63.4747 125.383Z" fill="white"/>
<path d="M7.92407 121.487C8.13857 123.727 7.25852 125.218 4.97722 125.264C2.69591 125.31 0.909644 123.901 0.390445 121.679C-0.141993 119.438 1.00029 117.992 3.26095 117.938C5.54772 117.874 7.09314 119.337 7.92407 121.487Z" fill="white"/>
<path d="M75.6436 164.595C75.7455 166.791 74.8008 168.153 72.5238 168.263C70.4599 168.364 68.0022 166.26 67.8569 164.257C67.7083 162.062 68.8154 160.671 71.1317 160.79C73.418 160.9 74.9338 162.4 75.6436 164.595Z" fill="white"/>
<path d="M70.8281 125.31C73.121 125.538 74.6027 126.746 74.9571 128.941C75.3173 131.164 74.1312 132.271 71.8877 132.142C69.7771 132.024 68.3661 130.752 67.9625 128.722C67.5255 126.49 68.6352 125.42 70.8281 125.31Z" fill="white"/>
<path d="M78.3699 160.836C75.9874 160.626 74.4651 159.491 74.0305 157.314C73.6052 155.137 74.637 153.921 76.8591 153.948C79.0905 153.976 80.5858 155.247 81.0372 157.415C81.4964 159.619 80.3395 160.644 78.3699 160.836Z" fill="white"/>
<path d="M4.98517 160.763C2.7258 160.516 1.26479 159.318 0.923637 157.141C0.585998 154.936 1.75924 153.857 3.98787 154.003C6.08363 154.14 7.46282 155.394 7.85509 157.415C8.27883 159.629 7.1613 160.662 4.98517 160.763Z" fill="white"/>
<path d="M44.2209 103.87C46.4721 104.034 48.0037 105.168 48.4161 107.373C48.8399 109.586 47.7476 110.739 45.5084 110.675C43.4188 110.611 41.9766 109.412 41.5169 107.382C41.009 105.168 42.0397 104.034 44.2209 103.87Z" fill="white"/>
<path d="M-0.729547 132.161C-3.10584 132.023 -4.65187 130.953 -5.12043 128.749C-5.57768 126.554 -4.55867 125.364 -2.31986 125.383C-0.249369 125.401 1.20192 126.554 1.7177 128.584C2.29106 130.798 1.25456 131.904 -0.729547 132.161Z" fill="white"/>
<path d="M19.2054 107.428C19.4117 109.586 18.4375 110.766 16.1867 110.647C13.9058 110.519 12.5108 109.147 12.2035 106.998C11.9141 104.976 12.9638 103.888 15.0382 103.925C17.3109 103.97 18.6456 105.278 19.2054 107.428Z" fill="white"/>
<path d="M83.9629 153.317C81.8801 152.933 80.4183 151.863 80.1954 149.979C79.9749 148.149 81.0224 147.006 83.0082 147.198C84.7845 147.372 86.1387 148.552 86.45 150.281C86.7777 152.174 85.6536 153.089 83.9629 153.317Z" fill="white"/>
<path d="M35.3779 97.1101C37.1032 97.2199 38.5296 98.0797 39.0674 99.8175C39.6607 101.729 38.7975 102.992 36.9019 103.092C34.9876 103.193 33.5045 102.022 33.072 100.119C32.6858 98.3907 33.6147 97.3937 35.3779 97.1101Z" fill="white"/>
<path d="M83.4187 135.801C83.6185 137.621 82.9069 138.893 80.9884 138.929C79.0792 138.966 77.6069 137.758 77.1803 135.883C76.7941 134.155 77.7067 132.993 79.4134 132.883C81.3199 132.746 82.6554 133.926 83.4187 135.801Z" fill="white"/>
<path d="M24.5729 100.083C24.7904 101.766 24.1286 102.964 22.3904 103.101C20.4765 103.248 18.9563 102.123 18.481 100.238C18.0131 98.345 18.976 97.1559 20.9229 97.1651C22.7016 97.1742 23.9339 98.3084 24.5729 100.083Z" fill="white"/>
<path d="M58.7301 104.555C60.7132 104.647 61.9639 105.516 62.3321 107.336C62.6614 108.973 61.9212 109.934 60.2551 109.97C58.432 110.016 57.2047 109.037 56.8123 107.235C56.4585 105.571 57.3179 104.775 58.7301 104.555Z" fill="white"/>
<path d="M67.5776 111.69C69.5514 111.782 70.8134 112.66 71.1835 114.489C71.5148 116.136 70.7764 117.105 69.0916 117.142C67.2591 117.187 66.0112 116.2 65.6263 114.388C65.2705 112.715 66.1261 111.901 67.5776 111.69Z" fill="white"/>
<path d="M3.83505 107.355C4.01086 108.974 3.35861 109.952 1.66411 109.943C-0.198706 109.934 -1.39867 108.864 -1.66558 107.08C-1.91073 105.443 -1.02942 104.574 0.659983 104.647C2.3568 104.711 3.38612 105.727 3.83505 107.355Z" fill="white"/>
<path d="M53.3292 100.046C53.5039 101.528 52.9268 102.552 51.4369 102.626C49.7712 102.708 48.5025 101.711 48.1713 100.064C47.875 98.5827 48.6773 97.6497 50.1902 97.6405C51.7293 97.6222 52.7602 98.6009 53.3292 100.046Z" fill="white"/>
<path d="M9.4572 100.147C9.53995 101.592 8.95896 102.598 7.45537 102.608C5.80217 102.617 4.54453 101.583 4.30327 99.9641C4.08219 98.528 4.90314 97.5951 6.43163 97.6591C7.94883 97.714 8.94429 98.7018 9.4572 100.147Z" fill="white"/>
<path d="M86.8921 167.101C85.2351 166.873 84.007 166.022 83.7373 164.357C83.4991 162.885 84.2826 161.952 85.8107 161.97C87.4998 161.998 88.7049 163.004 88.98 164.65C89.2334 166.15 88.3888 166.928 86.8921 167.101Z" fill="white"/>
<path d="M-2.12651 161.97C-0.471824 162.144 0.729441 162.912 1.10597 164.376C1.51556 165.995 0.706636 167.028 -0.956292 166.992C-2.44896 166.964 -3.60337 165.977 -3.92574 164.504C-4.25395 163.004 -3.35086 162.281 -2.12651 161.97Z" fill="white"/>
<path d="M77.6261 124.166C75.9964 123.846 74.7866 122.95 74.6256 121.313C74.4813 119.886 75.3042 118.962 76.835 119.081C78.506 119.2 79.6928 120.251 79.8612 121.88C80.0168 123.316 79.1402 124.075 77.6261 124.166Z" fill="white"/>
<path d="M91.411 143C91.5706 144.454 90.9806 145.286 89.5667 145.277C88.1508 145.259 87.1303 144.417 86.8461 143.036C86.5712 141.655 87.2566 140.832 88.6705 140.841C90.0938 140.85 91.0005 141.728 91.411 143Z" fill="white"/>
<path d="M14.6223 92.9942C14.706 94.0919 14.2576 94.8419 13.1187 94.851C11.8114 94.8602 10.8755 94.0644 10.7081 92.793C10.5609 91.7046 11.1932 91.0277 12.357 91.0917C13.5134 91.1649 14.2581 91.8966 14.6223 92.9942Z" fill="white"/>
<path d="M29.4796 92.9849C29.6211 94.5307 28.8899 95.2259 27.4487 95.0887C26.1404 94.9607 25.2789 94.1191 25.0967 92.866C24.8811 91.4117 25.6742 90.744 27.1228 90.872C28.4386 90.9909 29.203 91.8599 29.4796 92.9849Z" fill="white"/>
<path d="M43.902 92.9118C43.9599 94.2839 43.386 95.0156 42.0758 94.8784C40.9564 94.7595 40.1089 94.0277 39.9465 92.9118C39.7624 91.6496 40.4395 90.9636 41.7365 91.0825C42.8894 91.1831 43.5673 91.9972 43.902 92.9118Z" fill="white"/>
<path d="M88.0587 128.548C88.2646 129.956 87.7769 130.697 86.4584 130.697C85.3175 130.697 84.4633 130.066 84.1365 128.968C83.7692 127.724 84.2302 126.901 85.5199 126.81C86.8357 126.709 87.6368 127.487 88.0587 128.548Z" fill="white"/>
<path d="M94.1634 157.314C94.3437 158.558 93.8559 159.299 92.5486 159.308C91.4078 159.308 90.5537 158.677 90.2268 157.58C89.8596 156.336 90.3185 155.503 91.6102 155.421C92.8925 155.339 93.7435 156.043 94.1634 157.314Z" fill="white"/>
</g>
<g opacity="0.1">
<path d="M327.973 246.794C274.968 246.794 222.878 204.612 211.857 152.766C200.837 100.92 234.996 58.7373 288 58.7373L288.249 59.9096C235.906 59.9096 202.184 101.566 213.065 152.755C223.948 203.954 275.387 245.6 327.719 245.6C343.535 245.6 358.37 241.721 370.609 234.38L371.4 235.41C359.006 242.871 343.979 246.794 327.973 246.794Z" fill="white"/>
<path d="M277.883 225.144C248.669 209.542 227.459 182.48 221.144 152.766H223.552C229.693 181.658 250.317 207.964 278.723 223.139L277.883 225.144Z" fill="white"/>
<path d="M326.045 237.722C316.524 237.722 306.851 236.221 297.286 233.274L297.587 231.05C306.889 233.92 316.294 235.377 325.557 235.377C369.052 235.377 398.401 203.505 393.796 161.235L396.244 161.476C400.955 204.929 370.782 237.722 326.045 237.722Z" fill="white"/>
<path d="M388.543 139.574C381.322 120.411 367.53 102.848 349.693 90.1277C331.67 77.2648 310.619 70.187 290.434 70.187C274.137 70.187 259.287 74.7339 247.485 83.3457C233.735 93.3818 224.829 108.502 222.405 125.922L219.968 125.155C222.456 107.242 231.618 91.6945 245.756 81.3735C257.898 72.5207 273.168 67.8423 289.925 67.8423C310.692 67.8423 332.335 75.1283 350.873 88.3527C369.212 101.435 383.402 119.502 390.829 139.213L388.543 139.574Z" fill="white"/>
<path d="M321.028 214.122C286.439 214.122 252.451 186.599 245.26 152.766C242.349 139.07 244.11 126.12 250.338 115.317L252.547 116.752C246.558 127.15 244.869 139.596 247.668 152.766C254.583 185.296 287.271 211.766 320.528 211.766C326.431 211.766 332.09 210.934 337.33 209.29L338.504 211.547C333.045 213.267 327.155 214.122 321.028 214.122Z" fill="white"/>
<path d="M335.692 106.573C323.146 98.1916 309.223 93.7652 295.446 93.7652C283.36 93.7652 272.44 97.2494 263.862 103.845L262.103 101.895C271.017 95.0362 282.38 91.4205 294.948 91.4205C309.285 91.4205 323.761 96.0222 336.804 104.744L335.692 106.573Z" fill="white"/>
<path d="M278.899 188.714C267.046 179.116 258.923 166.352 256.038 152.777C250.083 124.761 268.535 101.961 297.188 101.961C325.829 101.961 353.985 124.761 359.94 152.777H358.742C352.924 125.407 325.431 103.144 297.45 103.144C269.47 103.144 251.441 125.407 257.259 152.777C260.076 166.034 268.002 178.502 279.595 187.881L278.899 188.714Z" fill="white"/>
<path d="M314.705 184.375C296.884 184.375 279.376 170.197 275.671 152.766C271.966 135.334 283.447 121.156 301.268 121.156L301.768 123.512C285.28 123.512 274.651 136.638 278.079 152.766C281.507 168.894 297.716 182.019 314.205 182.019C330.693 182.019 341.322 168.894 337.894 152.766H340.302C343.996 170.197 332.515 184.375 314.705 184.375Z" fill="white"/>
<path d="M311.327 168.477C302.467 168.477 293.767 161.432 291.925 152.766H293.123C294.825 160.775 302.876 167.294 311.064 167.294C319.252 167.294 324.531 160.775 322.829 152.766C321.126 144.756 313.076 138.237 304.888 138.237C300.34 138.237 296.53 140.231 294.425 143.715L293.328 142.981C295.596 139.212 299.719 137.054 304.636 137.054C313.496 137.054 322.196 144.099 324.038 152.766C325.881 161.432 320.176 168.477 311.327 168.477Z" fill="white"/>
</g>
<g opacity="0.1">
<path d="M171.551 11.8861L170.775 11.3849C177.256 -0.0645581 179.062 -13.7423 175.994 -28.1756C171.242 -50.5349 155.369 -71.1055 133.533 -83.2026L133.843 -83.8965C155.954 -71.6529 172.025 -50.8202 176.838 -28.1756C179.943 -13.565 178.112 0.290098 171.551 11.8861Z" fill="white"/>
<path d="M123.263 37.9847C85.9633 37.9847 49.3067 8.30078 41.5518 -28.1834C33.7968 -64.6677 57.8344 -94.3516 95.1337 -94.3516L95.309 -93.5266C58.4748 -93.5266 34.7448 -64.2128 42.4014 -28.1912C50.0597 7.83817 86.2576 37.1443 123.084 37.1443C134.214 37.1443 144.653 34.4149 153.266 29.2491L153.822 29.9739C145.101 35.2245 134.526 37.9847 123.263 37.9847Z" fill="white"/>
<path d="M88.0142 22.7495C67.4565 11.7703 52.5309 -7.27366 48.0864 -28.1835H49.7811C54.1027 -7.85192 68.6157 10.66 88.605 21.3385L88.0142 22.7495Z" fill="white"/>
<path d="M121.906 31.6007C115.206 31.6007 108.4 30.5444 101.669 28.4704L101.88 26.9053C108.426 28.9253 115.045 29.9508 121.563 29.9508C152.17 29.9508 172.824 7.52208 169.583 -22.2235L171.306 -22.0539C174.621 8.52439 153.388 31.6007 121.906 31.6007Z" fill="white"/>
<path d="M118.376 14.9933C94.0355 14.9933 70.1183 -4.37445 65.0576 -28.1832C63.009 -37.8209 64.2485 -46.9342 68.6311 -54.5364L70.1858 -53.5264C65.9712 -46.2095 64.7824 -37.4508 66.7523 -28.1832C71.618 -5.29195 94.6212 13.3357 118.024 13.3357C122.178 13.3357 126.16 12.7497 129.848 11.5932L130.674 13.1815C126.832 14.3919 122.688 14.9933 118.376 14.9933Z" fill="white"/>
<path d="M145.778 3.6594L144.376 2.44119C151.465 -5.40769 154.115 -16.5642 151.647 -28.1756C149.91 -36.3483 145.8 -44.2589 139.769 -51.0515L140.986 -51.9613C147.264 -44.8988 151.535 -36.6722 153.343 -28.1679C155.9 -16.1016 153.148 -4.49789 145.778 3.6594Z" fill="white"/>
<path d="M116.799 7.57595C110.856 7.57595 104.649 6.14958 98.8571 3.45104L99.0955 2.7186C104.756 5.35545 110.814 6.75097 116.616 6.75097C132.641 6.75097 144.557 -3.78875 145.597 -18.8851L146.456 -18.6615C145.405 -3.21048 133.202 7.57595 116.799 7.57595Z" fill="white"/>
</g>
<rect x="0.281213" y="0.227722" width="29.334" height="22.2388" rx="3.49214" transform="matrix(1 0 0.207912 0.978148 224.022 63.7148)" fill="#DDD7D1" stroke="#767676" stroke-width="0.465618"/>
<path d="M225.987 70.5415H233.765C234.87 70.5415 235.951 71.4174 236.181 72.4978L236.903 75.893M238.941 85.4801L238.04 81.2444M238.04 81.2444L236.903 75.893M238.04 81.2444H228.262M236.903 75.893H227.125" stroke="black" stroke-opacity="0.76" stroke-width="0.465618"/>
<path d="M254.856 70.5416H245.544M245.544 70.5416L246.681 75.8931M245.544 70.5416L244.189 64.1654M248.719 85.4802L247.819 81.2445M247.819 81.2445L246.681 75.8931M247.819 81.2445H257.131M246.681 75.8931L255.994 75.8931" stroke="black" stroke-opacity="0.76" stroke-width="0.465618"/>
<path opacity="0.4" d="M262.783 144.487C269.774 144.487 274.263 138.944 272.809 132.106C271.356 125.267 264.51 119.724 257.519 119.724C250.528 119.724 246.039 125.267 247.493 132.106C248.946 138.944 255.792 144.487 262.783 144.487Z" fill="white"/>
<path opacity="0.859468" d="M247.03 144.487C254.021 144.487 258.51 138.944 257.057 132.106C255.603 125.267 248.758 119.724 241.767 119.724C234.776 119.724 230.287 125.267 231.74 132.106C233.194 138.944 240.039 144.487 247.03 144.487Z" fill="white"/>
<path d="M49.1116 118.049C48.7656 118.049 48.4379 117.967 48.1286 117.802C47.8226 117.633 47.556 117.391 47.329 117.077C47.1062 116.764 46.9479 116.386 46.8541 115.945C46.7611 115.507 46.7614 115.131 46.8551 114.818C46.9487 114.504 47.1168 114.263 47.3593 114.093C47.6018 113.924 47.8982 113.84 48.2484 113.84C48.5016 113.84 48.7362 113.891 48.9522 113.994C49.1673 114.093 49.348 114.209 49.4942 114.341L49.2805 114.675C49.1462 114.56 49.002 114.467 48.8479 114.397C48.6937 114.327 48.528 114.292 48.3508 114.292C48.0892 114.292 47.8737 114.36 47.7044 114.496C47.5383 114.628 47.4264 114.816 47.3684 115.059C47.3147 115.303 47.3238 115.594 47.3957 115.932C47.4677 116.271 47.5831 116.566 47.7421 116.817C47.9002 117.065 48.0887 117.257 48.3075 117.393C48.5306 117.529 48.7729 117.597 49.0345 117.597C49.2328 117.597 49.4013 117.556 49.5398 117.474C49.6784 117.391 49.7982 117.28 49.8992 117.139L50.2587 117.461C50.1336 117.647 49.9787 117.791 49.7939 117.895C49.6091 117.998 49.3816 118.049 49.1116 118.049ZM52.0691 118.049C51.8117 118.049 51.5807 117.975 51.3762 117.827C51.1749 117.674 51.0458 117.463 50.9888 117.195C50.9186 116.865 51.0149 116.613 51.2776 116.44C51.5437 116.262 51.9963 116.138 52.6354 116.068C52.6082 115.94 52.5633 115.819 52.5008 115.703C52.4424 115.588 52.3594 115.495 52.2517 115.424C52.1473 115.35 52.0107 115.313 51.8419 115.313C51.6647 115.313 51.505 115.346 51.363 115.412C51.2209 115.478 51.0974 115.552 50.9926 115.635L50.7151 115.282C50.8392 115.191 50.9959 115.105 51.1851 115.022C51.3777 114.935 51.5963 114.892 51.841 114.892C52.2166 114.892 52.5128 115.006 52.7299 115.233C52.946 115.455 53.094 115.755 53.1738 116.13L53.566 117.975H53.1356L53.015 117.616H52.996C52.8771 117.732 52.7404 117.833 52.5858 117.919C52.4354 118.006 52.2632 118.049 52.0691 118.049ZM52.1342 117.641C52.2818 117.641 52.4136 117.606 52.5295 117.536C52.6454 117.465 52.7636 117.366 52.8841 117.238L52.7064 116.403C52.209 116.465 51.8701 116.557 51.6897 116.681C51.5135 116.805 51.446 116.964 51.4872 117.158C51.5232 117.327 51.6022 117.451 51.7244 117.529C51.8457 117.604 51.9823 117.641 52.1342 117.641ZM54.7869 117.975L54.1474 114.966H54.5778L54.7379 115.511H54.7568C54.822 115.321 54.9186 115.171 55.0469 115.059C55.1751 114.948 55.3257 114.892 55.4987 114.892C55.621 114.892 55.7351 114.913 55.8409 114.954L55.8344 115.4C55.7803 115.383 55.7312 115.371 55.6873 115.363C55.6433 115.354 55.5897 115.35 55.5264 115.35C55.3956 115.35 55.2695 115.402 55.1479 115.505C55.0306 115.608 54.9464 115.788 54.8953 116.044L55.3059 117.975H54.7869ZM58.2389 118.049C57.8549 118.049 57.5179 117.913 57.228 117.641C56.9371 117.364 56.7386 116.976 56.6325 116.477C56.5632 116.151 56.5647 115.87 56.637 115.635C56.7128 115.396 56.8383 115.212 57.0136 115.084C57.1932 114.956 57.399 114.892 57.631 114.892C57.8083 114.892 57.9688 114.923 58.1128 114.985C58.2568 115.047 58.4077 115.131 58.5655 115.239L58.431 114.725L58.1849 113.567H58.7102L59.6471 117.975H59.2167L59.0974 117.622H59.0784C58.9849 117.738 58.8671 117.839 58.7252 117.926C58.5824 118.008 58.4203 118.049 58.2389 118.049ZM58.262 117.622C58.532 117.622 58.7642 117.484 58.9586 117.207L58.6244 115.635C58.469 115.519 58.3253 115.439 58.1933 115.394C58.0647 115.344 57.937 115.319 57.8104 115.319C57.6459 115.319 57.5066 115.369 57.3927 115.468C57.282 115.563 57.2051 115.697 57.1617 115.87C57.1175 116.039 57.12 116.24 57.1691 116.471C57.2454 116.83 57.3794 117.113 57.5709 117.319C57.7616 117.521 57.9919 117.622 58.262 117.622ZM62.5071 117.975L61.6439 113.914H62.1692L62.5311 115.616H64.4615L64.0996 113.914H64.6312L65.4945 117.975H64.9628L64.5562 116.062H62.6258L63.0325 117.975H62.5071ZM68.0504 118.049C67.8015 118.049 67.5541 117.987 67.3084 117.864C67.0669 117.74 66.8536 117.56 66.6686 117.325C66.4878 117.09 66.3623 116.807 66.2921 116.477C66.2202 116.138 66.2246 115.852 66.3054 115.616C66.3904 115.381 66.5274 115.202 66.7163 115.078C66.9093 114.954 67.1304 114.892 67.3793 114.892C67.6325 114.892 67.8798 114.954 68.1213 115.078C68.3628 115.202 68.574 115.381 68.7548 115.616C68.9398 115.852 69.0683 116.138 69.1402 116.477C69.2104 116.807 69.203 117.09 69.118 117.325C69.0372 117.56 68.9023 117.74 68.7135 117.864C68.5246 117.987 68.3036 118.049 68.0504 118.049ZM67.9609 117.628C68.2268 117.628 68.4175 117.523 68.5331 117.313C68.652 117.098 68.6751 116.819 68.6023 116.477C68.5286 116.13 68.3866 115.85 68.1765 115.635C67.9705 115.42 67.7346 115.313 67.4688 115.313C67.2072 115.313 67.0169 115.42 66.898 115.635C66.779 115.85 66.7564 116.13 66.8301 116.477C66.9029 116.819 67.0444 117.098 67.2546 117.313C67.4639 117.523 67.6993 117.628 67.9609 117.628ZM71.0883 118.049C70.8943 118.049 70.7406 117.992 70.6274 117.876C70.5176 117.756 70.4395 117.587 70.393 117.368L69.585 113.567H70.104L70.9198 117.406C70.9365 117.484 70.9636 117.542 71.001 117.579C71.0375 117.612 71.0748 117.628 71.1128 117.628C71.1297 117.628 71.1444 117.628 71.1571 117.628C71.1731 117.624 71.1954 117.62 71.2241 117.616L71.3753 118C71.345 118.016 71.3076 118.029 71.2629 118.037C71.2183 118.045 71.1601 118.049 71.0883 118.049ZM73.4547 118.049C73.0707 118.049 72.7338 117.913 72.4438 117.641C72.1529 117.364 71.9545 116.976 71.8483 116.477C71.779 116.151 71.7805 115.87 71.8529 115.635C71.9286 115.396 72.0541 115.212 72.2294 115.084C72.409 114.956 72.6148 114.892 72.8469 114.892C73.0241 114.892 73.1847 114.923 73.3286 114.985C73.4726 115.047 73.6235 115.131 73.7813 115.239L73.6468 114.725L73.4007 113.567H73.926L74.863 117.975H74.4326L74.3133 117.622H74.2943C74.2007 117.738 74.0829 117.839 73.941 117.926C73.7982 118.008 73.6361 118.049 73.4547 118.049ZM73.4778 117.622C73.7479 117.622 73.9801 117.484 74.1745 117.207L73.8402 115.635C73.6849 115.519 73.5412 115.439 73.4092 115.394C73.2805 115.344 73.1529 115.319 73.0263 115.319C72.8617 115.319 72.7225 115.369 72.6085 115.468C72.4979 115.563 72.4209 115.697 72.3776 115.87C72.3334 116.039 72.3358 116.24 72.385 116.471C72.4613 116.83 72.5952 117.113 72.7868 117.319C72.9774 117.521 73.2078 117.622 73.4778 117.622ZM77.4147 118.049C77.1405 118.049 76.8784 117.987 76.6284 117.864C76.3776 117.736 76.1618 117.554 75.981 117.319C75.8002 117.084 75.6751 116.803 75.6058 116.477C75.5356 116.147 75.5409 115.864 75.6217 115.629C75.7068 115.394 75.8412 115.212 76.0249 115.084C76.2087 114.956 76.4166 114.892 76.6487 114.892C77.0411 114.892 77.37 115.02 77.6353 115.276C77.9049 115.532 78.0853 115.874 78.1766 116.304C78.188 116.357 78.1973 116.411 78.2045 116.465C78.215 116.514 78.22 116.557 78.2194 116.595H76.1435C76.2321 116.912 76.3873 117.166 76.6091 117.356C76.8351 117.546 77.0958 117.641 77.3912 117.641C77.5389 117.641 77.6695 117.62 77.7831 117.579C77.9 117.533 78.008 117.476 78.107 117.406L78.3616 117.74C78.2483 117.822 78.1139 117.895 77.9583 117.957C77.8069 118.018 77.6257 118.049 77.4147 118.049ZM76.0595 116.229H77.7051C77.6402 115.924 77.5235 115.693 77.3552 115.536C77.1902 115.375 76.9874 115.294 76.7469 115.294C76.5317 115.294 76.3551 115.377 76.2172 115.542C76.0827 115.703 76.0301 115.932 76.0595 116.229ZM79.5451 117.975L78.9056 114.966H79.336L79.4961 115.511H79.5151C79.5802 115.321 79.6769 115.171 79.8051 115.059C79.9333 114.948 80.0839 114.892 80.2569 114.892C80.3792 114.892 80.4933 114.913 80.5992 114.954L80.5926 115.4C80.5385 115.383 80.4894 115.371 80.4455 115.363C80.4015 115.354 80.3479 115.35 80.2846 115.35C80.1538 115.35 80.0277 115.402 79.9061 115.505C79.7888 115.608 79.7046 115.788 79.6535 116.044L80.0641 117.975H79.5451ZM83.5127 117.975L82.8731 114.966H83.3035L83.4399 115.4H83.4589C83.5759 115.255 83.7066 115.136 83.851 115.041C83.9945 114.942 84.1717 114.892 84.3827 114.892C84.7076 114.892 84.9653 114.993 85.156 115.195C85.35 115.394 85.4878 115.684 85.5694 116.068L85.9747 117.975H85.4557L85.0649 116.136C85.0052 115.856 84.9154 115.651 84.7954 115.524C84.6754 115.396 84.5141 115.332 84.3115 115.332C84.1554 115.332 84.0224 115.371 83.9125 115.449C83.8068 115.528 83.6921 115.643 83.5685 115.796L84.0317 117.975H83.5127ZM87.9517 118.049C87.6943 118.049 87.4634 117.975 87.2588 117.827C87.0575 117.674 86.9284 117.463 86.8714 117.195C86.8012 116.865 86.8975 116.613 87.1602 116.44C87.4263 116.262 87.8789 116.138 88.518 116.068C88.4908 115.94 88.4459 115.819 88.3834 115.703C88.3251 115.588 88.242 115.495 88.1343 115.424C88.0299 115.35 87.8933 115.313 87.7245 115.313C87.5473 115.313 87.3877 115.346 87.2456 115.412C87.1035 115.478 86.9801 115.552 86.8752 115.635L86.5977 115.282C86.7219 115.191 86.8785 115.105 87.0677 115.022C87.2603 114.935 87.4789 114.892 87.7237 114.892C88.0992 114.892 88.3955 115.006 88.6125 115.233C88.8286 115.455 88.9766 115.755 89.0565 116.13L89.4486 117.975H89.0182L88.8976 117.616H88.8786C88.7597 117.732 88.623 117.833 88.4684 117.919C88.318 118.006 88.1458 118.049 87.9517 118.049ZM88.0168 117.641C88.1645 117.641 88.2962 117.606 88.4121 117.536C88.528 117.465 88.6462 117.366 88.7667 117.238L88.589 116.403C88.0917 116.465 87.7527 116.557 87.5723 116.681C87.3961 116.805 87.3286 116.964 87.3698 117.158C87.4058 117.327 87.4849 117.451 87.607 117.529C87.7283 117.604 87.8649 117.641 88.0168 117.641ZM90.6695 117.975L90.03 114.966H90.4604L90.5968 115.4H90.6158C90.7201 115.255 90.8423 115.136 90.9825 115.041C91.1218 114.942 91.2821 114.892 91.4636 114.892C91.6999 114.892 91.8944 114.944 92.0471 115.047C92.2032 115.146 92.3322 115.286 92.434 115.468C92.5584 115.299 92.6915 115.16 92.8332 115.053C92.975 114.946 93.1387 114.892 93.3243 114.892C93.6408 114.892 93.8965 114.993 94.0913 115.195C94.2896 115.394 94.4295 115.684 94.5111 116.068L94.9164 117.975H94.3974L94.0065 116.136C93.9469 115.856 93.8571 115.651 93.737 115.524C93.617 115.396 93.46 115.332 93.2659 115.332C93.038 115.332 92.8135 115.486 92.5924 115.796L93.0556 117.975H92.5366L92.1458 116.136C92.0861 115.856 91.9963 115.651 91.8763 115.524C91.7563 115.396 91.5971 115.332 91.3988 115.332C91.1709 115.332 90.9464 115.486 90.7253 115.796L91.1885 117.975H90.6695ZM97.4328 118.049C97.1585 118.049 96.8964 117.987 96.6465 117.864C96.3957 117.736 96.1798 117.554 95.999 117.319C95.8182 117.084 95.6932 116.803 95.6239 116.477C95.5537 116.147 95.559 115.864 95.6398 115.629C95.7248 115.394 95.8592 115.212 96.043 115.084C96.2268 114.956 96.4347 114.892 96.6667 114.892C97.0592 114.892 97.388 115.02 97.6534 115.276C97.923 115.532 98.1034 115.874 98.1946 116.304C98.206 116.357 98.2153 116.411 98.2225 116.465C98.233 116.514 98.238 116.557 98.2375 116.595H96.1615C96.2502 116.912 96.4054 117.166 96.6272 117.356C96.8532 117.546 97.1139 117.641 97.4092 117.641C97.5569 117.641 97.6875 117.62 97.8011 117.579C97.9181 117.533 98.026 117.476 98.1251 117.406L98.3797 117.74C98.2664 117.822 98.132 117.895 97.9763 117.957C97.8249 118.018 97.6438 118.049 97.4328 118.049ZM96.0776 116.229H97.7231C97.6582 115.924 97.5416 115.693 97.3732 115.536C97.2082 115.375 97.0054 115.294 96.7649 115.294C96.5497 115.294 96.3732 115.377 96.2353 115.542C96.1007 115.703 96.0482 115.932 96.0776 116.229Z" fill="white"/>
<path d="M51.4352 134.926L50.0009 128.178H51.8469C52.9017 128.178 53.7837 128.456 54.4929 129.013C55.202 129.57 55.675 130.406 55.9119 131.521C56.1502 132.642 56.0389 133.491 55.5781 134.069C55.1157 134.64 54.3712 134.926 53.3445 134.926H51.4352ZM52.4527 133.956H52.9907C53.6869 133.956 54.1832 133.76 54.4796 133.368C54.7745 132.969 54.8335 132.353 54.6566 131.521C54.4812 130.695 54.1634 130.093 53.7032 129.715C53.243 129.337 52.6648 129.147 51.9686 129.147H51.4307L52.4527 133.956ZM59.6261 135.049C59.176 135.049 58.7776 134.912 58.4308 134.637C58.091 134.361 57.8743 134.004 57.7807 133.564C57.6652 133.02 57.8187 132.601 58.241 132.305C58.6619 132.002 59.3916 131.796 60.4301 131.686C60.366 131.417 60.2432 131.187 60.0616 130.994C59.8856 130.795 59.6218 130.695 59.2702 130.695C59.017 130.695 58.7776 130.743 58.5519 130.84C58.3333 130.936 58.1226 131.053 57.9198 131.19L57.3079 130.396C57.5582 130.217 57.8488 130.062 58.1796 129.932C58.5175 129.801 58.8904 129.736 59.2983 129.736C59.9453 129.736 60.4672 129.925 60.8641 130.303C61.2665 130.674 61.543 131.214 61.6936 131.923L62.3318 134.926H61.3297L61.1269 134.368H61.0847C60.8936 134.561 60.6783 134.723 60.4388 134.853C60.2064 134.984 59.9355 135.049 59.6261 135.049ZM59.819 134.121C60.03 134.121 60.2096 134.073 60.3579 133.976C60.5118 133.873 60.6689 133.736 60.8293 133.564L60.588 132.429C59.9038 132.518 59.4435 132.652 59.2073 132.831C58.9696 133.003 58.8778 133.216 58.9319 133.471C58.9801 133.698 59.0855 133.863 59.2481 133.966C59.4107 134.069 59.601 134.121 59.819 134.121ZM64.2055 134.926L63.1287 129.859H64.1308L64.3599 130.54H64.4021C64.5874 130.32 64.8003 130.131 65.041 129.973C65.2816 129.815 65.5777 129.736 65.9294 129.736C66.4849 129.736 66.9266 129.911 67.2543 130.262C67.582 130.613 67.8139 131.108 67.9499 131.748L68.6253 134.926H67.4123L66.7697 131.902C66.6805 131.483 66.5543 131.187 66.3912 131.015C66.228 130.843 66.0023 130.757 65.714 130.757C65.489 130.757 65.3002 130.812 65.1478 130.922C65.001 131.025 64.8405 131.18 64.6663 131.386L65.4186 134.926H64.2055ZM70.5301 134.926L69.4533 129.859H70.6663L71.7432 134.926H70.5301ZM69.8765 128.972C69.6585 128.972 69.4695 128.91 69.3096 128.786C69.1496 128.662 69.0477 128.497 69.0039 128.291C68.9615 128.092 68.9939 127.93 69.1012 127.806C69.2085 127.682 69.3711 127.62 69.5892 127.62C69.8072 127.62 69.9961 127.682 70.1561 127.806C70.316 127.93 70.4172 128.092 70.4596 128.291C70.5034 128.497 70.4717 128.662 70.3644 128.786C70.2571 128.91 70.0945 128.972 69.8765 128.972ZM75.9543 135.049C75.4761 135.049 75.0217 134.946 74.591 134.74C74.1589 134.527 73.7887 134.224 73.4803 133.832C73.1705 133.433 72.9563 132.955 72.8379 132.398C72.7209 131.847 72.7326 131.373 72.8728 130.974C73.0201 130.575 73.2539 130.269 73.5742 130.055C73.8946 129.842 74.2552 129.736 74.656 129.736C75.1272 129.736 75.5429 129.839 75.9033 130.045C76.2621 130.245 76.5612 130.527 76.8004 130.891C77.0382 131.249 77.2075 131.665 77.3084 132.14C77.361 132.387 77.3844 132.58 77.3785 132.717H74.0873C74.2386 133.165 74.4777 133.512 74.8046 133.76C75.1315 134.007 75.5024 134.131 75.9173 134.131C76.1424 134.131 76.3432 134.1 76.5199 134.038C76.7022 133.969 76.8759 133.877 77.0409 133.76L77.6102 134.502C77.3977 134.661 77.1512 134.791 76.8708 134.895C76.5903 134.998 76.2848 135.049 75.9543 135.049ZM73.9057 131.913H76.2053C76.1219 131.521 75.969 131.214 75.7464 130.994C75.5223 130.767 75.2345 130.654 74.8829 130.654C74.5805 130.654 74.3331 130.764 74.1408 130.984C73.9541 131.197 73.8757 131.507 73.9057 131.913ZM80.6888 135.049C80.2599 135.049 79.9269 134.922 79.69 134.668C79.4601 134.413 79.2983 134.066 79.2048 133.625L77.9327 127.641H79.1458L80.431 133.687C80.4617 133.832 80.5118 133.935 80.5812 133.997C80.6491 134.052 80.7148 134.079 80.778 134.079C80.8062 134.079 80.8308 134.079 80.8519 134.079C80.8786 134.073 80.9158 134.066 80.9635 134.059L81.3104 134.946C81.2459 134.974 81.1596 134.998 81.0515 135.018C80.9504 135.039 80.8295 135.049 80.6888 135.049ZM86.0563 131.335L85.9891 132.16H87.7507L87.3326 131.335C87.1441 130.977 86.9569 130.609 86.771 130.231C86.5921 129.852 86.414 129.478 86.2366 129.106H86.1944C86.1834 129.484 86.1653 129.863 86.1402 130.241C86.1207 130.613 86.0928 130.977 86.0563 131.335ZM84.5094 134.926L85.3219 128.178H86.7565L90.4376 134.926H89.1507L88.2245 133.099H85.9039L85.7541 134.926H84.5094ZM93.1297 135.049C92.5741 135.049 92.1325 134.874 91.8047 134.523C91.477 134.172 91.2452 133.677 91.1092 133.037L90.4337 129.859H91.6468L92.2894 132.883C92.3786 133.302 92.5047 133.598 92.6678 133.77C92.831 133.942 93.0532 134.028 93.3345 134.028C93.5595 134.028 93.7447 133.973 93.8901 133.863C94.0425 133.753 94.1909 133.574 94.3351 133.326L93.5982 129.859H94.8113L95.8882 134.926H94.8966L94.6438 134.183H94.6121C94.4426 134.444 94.2411 134.654 94.0075 134.812C93.7739 134.97 93.4813 135.049 93.1297 135.049ZM99.3181 135.049C98.9665 135.049 98.601 134.984 98.2216 134.853C97.8407 134.716 97.5025 134.547 97.207 134.348L97.6143 133.584C97.8829 133.756 98.1442 133.894 98.3982 133.997C98.6522 134.1 98.9093 134.152 99.1695 134.152C99.4508 134.152 99.6458 134.093 99.7546 133.976C99.8633 133.859 99.8994 133.715 99.8629 133.543C99.8322 133.398 99.7511 133.282 99.6195 133.192C99.4936 133.096 99.3389 133.013 99.1555 132.944C98.9707 132.869 98.7795 132.797 98.582 132.728C98.3395 132.645 98.0932 132.545 97.8433 132.429C97.599 132.305 97.3868 132.15 97.2067 131.964C97.0251 131.772 96.9043 131.534 96.8444 131.252C96.7493 130.805 96.8406 130.441 97.1182 130.159C97.3958 129.877 97.823 129.736 98.3996 129.736C98.7653 129.736 99.1054 129.797 99.4201 129.921C99.7347 130.045 100.014 130.186 100.259 130.344L99.8534 131.067C99.6428 130.936 99.4345 130.833 99.2285 130.757C99.0282 130.675 98.826 130.633 98.6221 130.633C98.3619 130.633 98.1802 130.688 98.077 130.798C97.9723 130.901 97.9368 131.032 97.9704 131.19C98.0128 131.39 98.1505 131.541 98.3834 131.644C98.6163 131.748 98.8836 131.847 99.1854 131.944C99.442 132.026 99.696 132.129 99.9474 132.253C100.197 132.37 100.417 132.525 100.605 132.717C100.801 132.91 100.932 133.165 101 133.481C101.092 133.914 100.998 134.286 100.72 134.595C100.439 134.898 99.9721 135.049 99.3181 135.049ZM104.457 135.049C103.859 135.049 103.398 134.881 103.073 134.544C102.754 134.2 102.536 133.756 102.421 133.213L101.907 130.798H101.169L100.98 129.911L101.771 129.859L101.625 128.477H102.638L102.932 129.859H104.25L104.45 130.798H103.131L103.644 133.213C103.77 133.804 104.076 134.1 104.561 134.1C104.652 134.1 104.745 134.09 104.839 134.069C104.932 134.042 105.01 134.014 105.075 133.987L105.472 134.864C105.342 134.912 105.189 134.953 105.013 134.987C104.846 135.029 104.661 135.049 104.457 135.049ZM106.839 134.926L105.762 129.859H106.975L108.052 134.926H106.839ZM106.185 128.972C105.967 128.972 105.778 128.91 105.618 128.786C105.458 128.662 105.356 128.497 105.313 128.291C105.27 128.092 105.303 127.93 105.41 127.806C105.517 127.682 105.68 127.62 105.898 127.62C106.116 127.62 106.305 127.682 106.465 127.806C106.625 127.93 106.726 128.092 106.768 128.291C106.812 128.497 106.78 128.662 106.673 128.786C106.566 128.91 106.403 128.972 106.185 128.972ZM110.022 134.926L108.945 129.859H109.947L110.176 130.54H110.218C110.403 130.32 110.616 130.131 110.857 129.973C111.098 129.815 111.394 129.736 111.745 129.736C112.301 129.736 112.743 129.911 113.07 130.262C113.398 130.613 113.63 131.108 113.766 131.748L114.441 134.926H113.228L112.586 131.902C112.497 131.483 112.37 131.187 112.207 131.015C112.044 130.843 111.818 130.757 111.53 130.757C111.305 130.757 111.116 130.812 110.964 130.922C110.817 131.025 110.656 131.18 110.482 131.386L111.235 134.926H110.022Z" fill="white"/>
<path d="M149.446 117.975L148.583 113.914H150.975L151.067 114.347H149.2L149.471 115.623H151.047L151.141 116.062H149.565L149.878 117.536H151.808L151.902 117.975H149.446ZM152.358 117.975L153.03 116.403L151.795 114.966H152.358L152.91 115.629C152.973 115.707 153.039 115.79 153.108 115.876C153.177 115.963 153.248 116.048 153.32 116.13H153.346C153.375 116.048 153.403 115.963 153.431 115.876C153.459 115.79 153.488 115.707 153.518 115.629L153.75 114.966H154.295L153.681 116.458L155.004 117.975H154.44L153.842 117.276C153.768 117.185 153.694 117.094 153.62 117.003C153.546 116.912 153.47 116.824 153.392 116.737H153.367C153.331 116.824 153.297 116.912 153.265 117.003C153.233 117.09 153.202 117.181 153.171 117.276L152.902 117.975H152.358ZM156.136 119.244L155.227 114.966H155.657L155.775 115.313H155.794C155.909 115.197 156.04 115.098 156.187 115.016C156.338 114.933 156.504 114.892 156.686 114.892C157.082 114.892 157.414 115.032 157.68 115.313C157.946 115.59 158.128 115.961 158.227 116.427C158.299 116.766 158.298 117.057 158.223 117.3C158.152 117.544 158.029 117.73 157.854 117.857C157.683 117.985 157.479 118.049 157.243 118.049C157.099 118.049 156.949 118.018 156.793 117.957C156.64 117.895 156.481 117.81 156.315 117.703L156.439 118.229L156.655 119.244H156.136ZM157.063 117.622C157.317 117.622 157.503 117.517 157.623 117.306C157.746 117.092 157.768 116.799 157.689 116.427C157.619 116.097 157.499 115.831 157.33 115.629C157.163 115.422 156.935 115.319 156.643 115.319C156.513 115.319 156.387 115.354 156.267 115.424C156.151 115.495 156.031 115.596 155.908 115.728L156.243 117.306C156.407 117.422 156.559 117.505 156.701 117.554C156.841 117.6 156.962 117.622 157.063 117.622ZM159.63 117.975L158.991 114.966H159.51L160.149 117.975H159.63ZM159.125 114.347C159.024 114.347 158.933 114.318 158.853 114.261C158.777 114.199 158.728 114.116 158.706 114.013C158.685 113.914 158.699 113.833 158.749 113.772C158.804 113.71 158.881 113.679 158.983 113.679C159.084 113.679 159.173 113.71 159.249 113.772C159.33 113.833 159.381 113.914 159.402 114.013C159.424 114.116 159.408 114.199 159.353 114.261C159.302 114.318 159.226 114.347 159.125 114.347ZM161.441 117.975L160.801 114.966H161.232L161.392 115.511H161.411C161.476 115.321 161.573 115.171 161.701 115.059C161.829 114.948 161.98 114.892 162.153 114.892C162.275 114.892 162.389 114.913 162.495 114.954L162.488 115.4C162.434 115.383 162.385 115.371 162.341 115.363C162.297 115.354 162.244 115.35 162.18 115.35C162.05 115.35 161.923 115.402 161.802 115.505C161.685 115.608 161.6 115.788 161.549 116.044L161.96 117.975H161.441ZM164.374 119.269C164.307 119.269 164.24 119.263 164.174 119.25C164.113 119.238 164.055 119.224 164.001 119.207L164.016 118.805C164.052 118.813 164.092 118.821 164.136 118.829C164.18 118.842 164.222 118.848 164.26 118.848C164.433 118.848 164.563 118.786 164.651 118.662C164.739 118.543 164.795 118.39 164.819 118.204L164.841 117.981L162.966 114.966H163.504L164.485 116.632C164.558 116.76 164.636 116.898 164.719 117.046C164.805 117.195 164.886 117.339 164.963 117.48H164.988C165.005 117.344 165.019 117.201 165.03 117.053C165.041 116.904 165.053 116.764 165.067 116.632L165.264 114.966H165.77L165.304 118.223C165.274 118.421 165.226 118.598 165.158 118.755C165.094 118.912 164.998 119.036 164.87 119.127C164.746 119.222 164.581 119.269 164.374 119.269ZM169.843 118.049C169.459 118.049 169.122 117.913 168.832 117.641C168.541 117.364 168.343 116.976 168.237 116.477C168.167 116.151 168.169 115.87 168.241 115.635C168.317 115.396 168.442 115.212 168.618 115.084C168.797 114.956 169.003 114.892 169.235 114.892C169.412 114.892 169.573 114.923 169.717 114.985C169.861 115.047 170.012 115.131 170.17 115.239L170.035 114.725L169.789 113.567H170.314L171.251 117.975H170.821L170.702 117.622H170.683C170.589 117.738 170.471 117.839 170.329 117.926C170.187 118.008 170.025 118.049 169.843 118.049ZM169.866 117.622C170.136 117.622 170.368 117.484 170.563 117.207L170.229 115.635C170.073 115.519 169.93 115.439 169.798 115.394C169.669 115.344 169.541 115.319 169.415 115.319C169.25 115.319 169.111 115.369 168.997 115.468C168.886 115.563 168.809 115.697 168.766 115.87C168.722 116.039 168.724 116.24 168.773 116.471C168.85 116.83 168.984 117.113 169.175 117.319C169.366 117.521 169.596 117.622 169.866 117.622ZM173.265 118.049C173.008 118.049 172.777 117.975 172.572 117.827C172.371 117.674 172.242 117.463 172.185 117.195C172.115 116.865 172.211 116.613 172.474 116.44C172.74 116.262 173.192 116.138 173.831 116.068C173.804 115.94 173.759 115.819 173.697 115.703C173.638 115.588 173.555 115.495 173.448 115.424C173.343 115.35 173.207 115.313 173.038 115.313C172.861 115.313 172.701 115.346 172.559 115.412C172.417 115.478 172.293 115.552 172.189 115.635L171.911 115.282C172.035 115.191 172.192 115.105 172.381 115.022C172.574 114.935 172.792 114.892 173.037 114.892C173.413 114.892 173.709 115.006 173.926 115.233C174.142 115.455 174.29 115.755 174.37 116.13L174.762 117.975H174.332L174.211 117.616H174.192C174.073 117.732 173.936 117.833 173.782 117.919C173.631 118.006 173.459 118.049 173.265 118.049ZM173.33 117.641C173.478 117.641 173.61 117.606 173.726 117.536C173.841 117.465 173.96 117.366 174.08 117.238L173.902 116.403C173.405 116.465 173.066 116.557 172.886 116.681C172.71 116.805 172.642 116.964 172.683 117.158C172.719 117.327 172.798 117.451 172.92 117.529C173.042 117.604 173.178 117.641 173.33 117.641ZM176.881 118.049C176.551 118.049 176.302 117.957 176.131 117.771C175.965 117.585 175.851 117.344 175.788 117.046L175.434 115.381H174.978L174.896 114.997L175.371 114.966L175.255 114.124H175.692L175.871 114.966H176.7L176.788 115.381H175.959L176.314 117.053C176.354 117.238 176.418 117.383 176.508 117.486C176.6 117.585 176.735 117.635 176.913 117.635C176.967 117.635 177.025 117.626 177.085 117.61C177.143 117.589 177.197 117.571 177.244 117.554L177.426 117.938C177.348 117.967 177.261 117.992 177.164 118.012C177.072 118.037 176.978 118.049 176.881 118.049ZM179.464 118.049C179.19 118.049 178.928 117.987 178.678 117.864C178.427 117.736 178.211 117.554 178.03 117.319C177.85 117.084 177.725 116.803 177.655 116.477C177.585 116.147 177.59 115.864 177.671 115.629C177.756 115.394 177.891 115.212 178.074 115.084C178.258 114.956 178.466 114.892 178.698 114.892C179.091 114.892 179.419 115.02 179.685 115.276C179.954 115.532 180.135 115.874 180.226 116.304C180.237 116.357 180.247 116.411 180.254 116.465C180.264 116.514 180.269 116.557 180.269 116.595H178.193C178.282 116.912 178.437 117.166 178.659 117.356C178.885 117.546 179.145 117.641 179.441 117.641C179.588 117.641 179.719 117.62 179.833 117.579C179.949 117.533 180.057 117.476 180.156 117.406L180.411 117.74C180.298 117.822 180.163 117.895 180.008 117.957C179.856 118.018 179.675 118.049 179.464 118.049ZM178.109 116.229H179.755C179.69 115.924 179.573 115.693 179.405 115.536C179.24 115.375 179.037 115.294 178.796 115.294C178.581 115.294 178.405 115.377 178.267 115.542C178.132 115.703 178.08 115.932 178.109 116.229Z" fill="white"/>
<path d="M155.206 135.049C154.51 135.049 153.892 134.754 153.351 134.162C152.817 133.57 152.433 132.721 152.198 131.613C151.962 130.506 151.988 129.667 152.274 129.096C152.568 128.525 153.063 128.239 153.759 128.239C154.455 128.239 155.068 128.525 155.597 129.096C156.133 129.667 156.519 130.506 156.755 131.613C156.99 132.721 156.963 133.57 156.674 134.162C156.392 134.754 155.903 135.049 155.206 135.049ZM155.009 134.121C155.227 134.121 155.404 134.042 155.539 133.883C155.672 133.718 155.746 133.453 155.76 133.089C155.781 132.724 155.726 132.233 155.594 131.613C155.463 130.994 155.31 130.506 155.135 130.148C154.968 129.791 154.784 129.54 154.585 129.395C154.384 129.244 154.174 129.168 153.956 129.168C153.745 129.168 153.571 129.244 153.435 129.395C153.297 129.54 153.217 129.791 153.194 130.148C153.172 130.506 153.226 130.994 153.358 131.613C153.489 132.233 153.643 132.724 153.819 133.089C153.995 133.453 154.185 133.718 154.389 133.883C154.591 134.042 154.798 134.121 155.009 134.121ZM158.711 134.926L158.564 134.234C159.064 133.643 159.49 133.116 159.842 132.656C160.2 132.188 160.461 131.765 160.627 131.386C160.791 131.001 160.838 130.644 160.768 130.313C160.695 129.969 160.542 129.694 160.308 129.488C160.074 129.282 159.778 129.178 159.419 129.178C159.159 129.178 158.935 129.251 158.748 129.395C158.568 129.54 158.407 129.711 158.267 129.911L157.452 129.251C157.692 128.927 157.96 128.68 158.254 128.508C158.546 128.329 158.921 128.239 159.378 128.239C160.025 128.239 160.577 128.422 161.034 128.786C161.499 129.151 161.796 129.639 161.926 130.251C162.008 130.637 161.979 131.032 161.841 131.438C161.707 131.837 161.499 132.246 161.215 132.666C160.939 133.085 160.628 133.526 160.283 133.987C160.456 133.973 160.643 133.959 160.844 133.945C161.044 133.925 161.224 133.914 161.386 133.914H163.032L163.246 134.926H158.711ZM164.617 136.576L165.167 127.6H165.99L165.44 136.576H164.617ZM170.746 135.049C170.204 135.049 169.728 134.96 169.317 134.781C168.912 134.595 168.563 134.375 168.27 134.121L168.688 133.357C168.934 133.557 169.203 133.729 169.494 133.873C169.783 134.011 170.097 134.079 170.434 134.079C170.8 134.079 171.077 133.993 171.265 133.821C171.459 133.643 171.524 133.398 171.458 133.089C171.41 132.862 171.308 132.666 171.153 132.501C171.004 132.329 170.776 132.198 170.469 132.109C170.169 132.019 169.762 131.975 169.248 131.975L169.064 131.108C169.725 131.108 170.161 131.008 170.372 130.809C170.583 130.609 170.656 130.358 170.591 130.055C170.533 129.78 170.4 129.567 170.192 129.416C169.982 129.257 169.723 129.178 169.414 129.178C169.153 129.178 168.927 129.237 168.733 129.354C168.539 129.464 168.359 129.612 168.195 129.797L167.417 129.065C167.652 128.817 167.916 128.618 168.207 128.466C168.506 128.315 168.855 128.239 169.256 128.239C169.903 128.239 170.459 128.391 170.924 128.693C171.388 128.989 171.679 129.416 171.798 129.973C171.875 130.337 171.835 130.647 171.678 130.901C171.527 131.149 171.283 131.342 170.947 131.479L170.956 131.521C171.371 131.624 171.742 131.813 172.068 132.088C172.394 132.363 172.602 132.717 172.695 133.151C172.779 133.55 172.743 133.89 172.585 134.172C172.434 134.454 172.195 134.671 171.868 134.822C171.549 134.974 171.175 135.049 170.746 135.049ZM176.745 135.049C176.048 135.049 175.43 134.754 174.889 134.162C174.356 133.57 173.971 132.721 173.736 131.613C173.5 130.506 173.526 129.667 173.813 129.096C174.106 128.525 174.601 128.239 175.297 128.239C175.993 128.239 176.606 128.525 177.135 129.096C177.672 129.667 178.057 130.506 178.293 131.613C178.528 132.721 178.501 133.57 178.212 134.162C177.93 134.754 177.441 135.049 176.745 135.049ZM176.547 134.121C176.765 134.121 176.942 134.042 177.077 133.883C177.211 133.718 177.285 133.453 177.298 133.089C177.319 132.724 177.264 132.233 177.133 131.613C177.001 130.994 176.848 130.506 176.673 130.148C176.506 129.791 176.322 129.54 176.123 129.395C175.922 129.244 175.713 129.168 175.495 129.168C175.284 129.168 175.11 129.244 174.973 129.395C174.835 129.54 174.755 129.791 174.732 130.148C174.71 130.506 174.765 130.994 174.896 131.613C175.028 132.233 175.182 132.724 175.358 133.089C175.533 133.453 175.723 133.718 175.927 133.883C176.13 134.042 176.336 134.121 176.547 134.121Z" fill="white"/>
<path d="M70.0938 35.5201L72.6627 34.9802C72.8606 35.6132 73.2175 36.1282 73.7334 36.5254C74.2592 36.9101 74.9346 37.1025 75.7593 37.1025C76.5079 37.1025 77.0639 36.9722 77.4272 36.7116C77.7879 36.4385 77.9168 36.06 77.8139 35.5759C77.7295 35.1788 77.4832 34.8561 77.0752 34.6079C76.6672 34.3597 76.1861 34.1859 75.6321 34.0866C75.0908 33.9873 74.4908 33.8508 73.8321 33.6771C73.1708 33.4909 72.55 33.2861 71.9696 33.0627C71.3992 32.8269 70.8784 32.4359 70.4071 31.8899C69.9331 31.3314 69.6103 30.6487 69.4389 29.842C69.1935 28.6878 69.4318 27.7197 70.1538 26.9378C70.8758 26.1559 71.9918 25.765 73.5017 25.765C74.9228 25.765 76.1502 26.1373 77.184 26.882C78.2151 27.6142 78.9282 28.5513 79.3232 29.6931L76.7425 30.1771C76.5905 29.5814 76.2668 29.1036 75.7716 28.7436C75.2865 28.3713 74.6886 28.1851 73.978 28.1851C73.3309 28.1851 72.8411 28.3279 72.5084 28.6133C72.1731 28.8864 72.0516 29.2401 72.1439 29.6745C72.2204 30.0344 72.4157 30.3261 72.7296 30.5495C73.0435 30.7729 73.4231 30.9466 73.8682 31.0707C74.3259 31.1948 74.8205 31.3127 75.3517 31.4244C75.8931 31.5237 76.436 31.6602 76.9804 31.834C77.5376 32.0078 78.0546 32.2312 78.5313 32.5042C79.0181 32.7648 79.4488 33.1496 79.8234 33.6584C80.1981 34.1673 80.4605 34.7754 80.6109 35.4829C80.8642 36.6743 80.5764 37.6486 79.7476 38.4057C78.9289 39.1503 77.7202 39.5227 76.1215 39.5227C74.4973 39.5227 73.1798 39.1441 72.1687 38.3871C71.1677 37.6176 70.4761 36.6619 70.0938 35.5201Z" fill="white"/>
<path d="M83.3143 25.2996L84.3985 30.4005C84.8112 29.6559 85.652 29.2835 86.9208 29.2835C88.1008 29.2835 89.0832 29.6372 89.868 30.3447C90.6502 31.0397 91.1679 31.9829 91.4211 33.1744L92.7151 39.262H90.0125L88.7818 33.4723C88.5101 32.1939 87.8096 31.5548 86.6803 31.5548C86.0332 31.5548 85.5729 31.7471 85.2994 32.1319C85.0233 32.5042 84.9564 33.0255 85.0989 33.6957L86.2821 39.262H83.5795L80.6116 25.2996H83.3143Z" fill="white"/>
<path d="M103.231 38.0147C102.475 38.9952 101.317 39.4854 99.7564 39.4854C98.1958 39.4854 96.8291 38.9952 95.6563 38.0147C94.481 37.0218 93.7416 35.8118 93.4382 34.3845C93.1349 32.9572 93.3611 31.7533 94.117 30.7729C94.8703 29.78 96.0273 29.2835 97.5879 29.2835C99.1486 29.2835 100.517 29.78 101.692 30.7729C102.865 31.7533 103.603 32.9572 103.906 34.3845C104.21 35.8118 103.985 37.0218 103.231 38.0147ZM96.4137 32.3553C96.0498 32.8517 95.9588 33.5281 96.1409 34.3845C96.3229 35.2408 96.7014 35.9173 97.2764 36.4137C97.8641 36.9101 98.5259 37.1584 99.2618 37.1584C99.9977 37.1584 100.548 36.9101 100.912 36.4137C101.288 35.9173 101.386 35.2408 101.204 34.3845C101.021 33.5281 100.637 32.8517 100.049 32.3553C99.474 31.8588 98.8185 31.6106 98.0826 31.6106C97.3467 31.6106 96.7904 31.8588 96.4137 32.3553Z" fill="white"/>
<path d="M109.275 38.2195L110.32 43.1343H107.617L104.72 29.5069H107.214L107.467 30.6984C107.926 29.7551 108.879 29.2835 110.326 29.2835C111.734 29.2835 112.953 29.7676 113.984 30.7356C115.015 31.7037 115.685 32.92 115.997 34.3845C116.308 35.849 116.154 37.0653 115.535 38.0333C114.916 39.0014 113.903 39.4854 112.494 39.4854C111.834 39.4854 111.219 39.3675 110.649 39.1317C110.089 38.8835 109.631 38.5794 109.275 38.2195ZM108.626 32.3925C108.293 32.9138 108.212 33.5778 108.384 34.3845C108.555 35.1912 108.918 35.8552 109.473 36.3765C110.041 36.8977 110.693 37.1584 111.428 37.1584C112.164 37.1584 112.699 36.8977 113.032 36.3765C113.378 35.8552 113.466 35.1912 113.294 34.3845C113.123 33.5778 112.753 32.9138 112.186 32.3925C111.631 31.8712 110.985 31.6106 110.249 31.6106C109.513 31.6106 108.972 31.8712 108.626 32.3925Z" fill="white"/>
<path d="M122.783 37.1397C123.277 37.1397 123.68 37.0032 123.99 36.7302C124.3 36.4571 124.459 36.1034 124.468 35.669L127.266 36.1158C127.255 37.0218 126.922 37.8099 126.265 38.4801C125.608 39.1503 124.62 39.4854 123.3 39.4854C121.854 39.4854 120.552 39.0014 119.394 38.0333C118.247 37.0529 117.519 35.8366 117.21 34.3845C116.902 32.9324 117.114 31.7223 117.847 30.7542C118.59 29.7738 119.685 29.2835 121.132 29.2835C122.451 29.2835 123.582 29.6186 124.524 30.2888C125.466 30.959 126.134 31.7471 126.53 32.6531L123.922 33.0999C123.728 32.6655 123.418 32.3118 122.992 32.0388C122.566 31.7657 122.106 31.6292 121.611 31.6292C120.901 31.6292 120.396 31.8836 120.099 32.3925C119.798 32.8889 119.736 33.5529 119.913 34.3845C120.09 35.216 120.435 35.8862 120.949 36.3951C121.461 36.8915 122.072 37.1397 122.783 37.1397Z" fill="white"/>
<path d="M130.458 32.7276L127.771 32.2622C127.751 31.3934 128.037 30.6798 128.629 30.1213C129.234 29.5628 130.215 29.2835 131.572 29.2835C133.019 29.2835 134.177 29.6 135.048 30.233C135.918 30.8659 136.476 31.7595 136.721 32.9138L137.525 36.6929C137.614 37.1149 137.837 37.3259 138.192 37.3259L138.474 37.3073L138.901 39.3179C138.772 39.3675 138.543 39.3924 138.213 39.3924C137.071 39.3924 136.23 38.989 135.691 38.1823C135.051 39.0511 133.995 39.4854 132.523 39.4854C131.368 39.4854 130.436 39.2186 129.726 38.6849C129.029 38.1512 128.591 37.4624 128.411 36.6185C128.045 34.8933 129.111 33.8198 131.609 33.3978L134.164 32.9696L134.148 32.8952C133.945 31.9395 133.241 31.4617 132.035 31.4617C130.931 31.4617 130.406 31.8836 130.458 32.7276ZM134.564 34.8499L132.276 35.2781C131.751 35.3774 131.388 35.5201 131.187 35.7063C130.982 35.88 130.912 36.1158 130.975 36.4137C131.12 37.0963 131.694 37.4376 132.696 37.4376C133.47 37.4376 134.025 37.239 134.359 36.8419C134.691 36.4323 134.784 35.8862 134.639 35.2036L134.564 34.8499Z" fill="white"/>
<path d="M144.128 29.4325L144.655 31.9085C144.456 31.8712 144.275 31.8526 144.11 31.8526C143.311 31.8526 142.751 32.0574 142.432 32.467C142.126 32.8765 142.067 33.5219 142.254 34.4031L143.287 39.262H140.584L138.511 29.5069H141.004L141.273 30.7729C141.651 29.8668 142.494 29.4138 143.801 29.4138L144.128 29.4325Z" fill="white"/>
<path d="M151.868 36.9163L152.354 39.2062C152.066 39.2807 151.648 39.3179 151.103 39.3179C149.06 39.3179 147.828 38.325 147.406 36.3392L146.396 31.592H145.045L144.602 29.5069H145.953L145.439 27.0868H148.141L148.656 29.5069L150.312 29.5069L150.755 31.592L149.099 31.592L150.049 36.06C150.183 36.6929 150.587 37.0094 151.259 37.0094L151.868 36.9163Z" fill="white"/>
<path d="M49.9146 47.858C48.4782 47.858 47.0695 46.7286 46.7744 45.3402C46.4793 43.9519 47.4079 42.8225 48.8443 42.8225C50.2808 42.8225 51.6894 43.9519 51.9845 45.3402C52.2796 46.7286 51.3511 47.858 49.9146 47.858ZM49.1579 44.298C48.5625 44.298 48.1791 44.7661 48.3011 45.3402C48.4231 45.9144 49.007 46.3825 49.601 46.3825C50.195 46.3825 50.5799 45.9144 50.4579 45.3402C50.3358 44.7661 49.752 44.298 49.1579 44.298Z" fill="white"/>
<path d="M57.6075 47.858C56.1711 47.858 54.7624 46.7286 54.4673 45.3402C54.1722 43.9519 55.1007 42.8225 56.5372 42.8225C57.9737 42.8225 59.3823 43.9519 59.6774 45.3402C59.9725 46.7286 59.044 47.858 57.6075 47.858ZM56.8508 44.298C56.2554 44.298 55.8719 44.7661 55.994 45.3402C56.116 45.9144 56.6999 46.3825 57.2939 46.3825C57.8879 46.3825 58.2728 45.9144 58.1507 45.3402C58.0287 44.7661 57.4448 44.298 56.8508 44.298Z" fill="white"/>
<path d="M45.4135 45.9439C45.0984 45.9439 44.764 45.7548 44.5885 45.4516L36.1665 30.863H33.7474C33.3255 30.863 32.9139 30.533 32.8272 30.1252C32.7405 29.7174 33.0118 29.3875 33.4337 29.3875H36.3927C36.7161 29.3875 37.0467 29.5846 37.2177 29.8797L45.9245 44.9594C46.1465 45.3443 46.0279 45.7655 45.6583 45.901C45.5797 45.9292 45.4981 45.9439 45.4135 45.9439Z" fill="white"/>
<path d="M60.3943 44.0298C60.1987 44.0298 59.989 43.9573 59.8086 43.8138C59.4489 43.5254 59.3496 43.0586 59.5867 42.7702L60.6123 41.5228L60.4455 40.7381H42.929C42.5071 40.7381 42.0955 40.4081 42.0089 40.0003C41.9222 39.5925 42.1935 39.2626 42.6154 39.2626H60.8966C61.3185 39.2626 61.7301 39.5925 61.8168 40.0003L62.2054 41.8286C62.247 42.0244 62.2064 42.2122 62.0928 42.3504L60.8897 43.8138C60.7717 43.9573 60.5914 44.0298 60.3957 44.0298H60.3943Z" fill="white"/>
<path d="M61.2094 40.7368C60.7875 40.7368 60.376 40.4068 60.2893 39.9991L59.1178 34.4874C59.0311 34.0796 59.3024 33.7496 59.7243 33.7496C60.1462 33.7496 60.5577 34.0796 60.6444 34.4874L61.816 39.9991C61.9026 40.4068 61.6314 40.7368 61.2094 40.7368Z" fill="white"/>
<path d="M50.3614 30.4124L48.7528 22.8444C48.3331 20.8699 49.6498 19.2683 51.6928 19.2683L53.3014 26.8363C53.7211 28.8108 52.4044 30.4124 50.3614 30.4124Z" fill="#08AC0A"/>
<path d="M43.082 25.3392H44.2881C46.5198 25.3392 48.7031 27.0897 49.1616 29.2466L49.4093 30.4123H48.2032C45.9715 30.4123 43.7883 28.6618 43.3298 26.5049L43.082 25.3392Z" fill="#08AC0A"/>
<path d="M57.6904 37.5658C56.968 34.1668 53.5299 31.4103 50.013 31.4103C46.4961 31.4103 44.23 34.1668 44.9524 37.5658H57.6904Z" fill="#FF7006"/>
</g>
<defs>
<clipPath id="clip0_453_5627">
<rect width="266.614" height="168.117" rx="11.6034" transform="matrix(1 0 0.207912 0.978148 0.514648 0.832031)" fill="white"/>
</clipPath>
</defs>
</svg>
