<svg width="24" height="25" viewBox="0 0 24 25" fill="none" xmlns="http://www.w3.org/2000/svg">
<path d="M14 11.291H10V13.291H14V11.291Z" fill="#C34482"/>
<path fill-rule="evenodd" clip-rule="evenodd" d="M7 5.29102V4.29102C7 3.18646 7.89539 2.29102 9 2.29102H15C16.1046 2.29102 17 3.18646 17 4.29102V5.29102H20C21.6569 5.29102 23 6.63416 23 8.29102V18.291C23 19.9479 21.6569 21.291 20 21.291H4C2.34314 21.291 1 19.9479 1 18.291V8.29102C1 6.63416 2.34314 5.29102 4 5.29102H7ZM9 4.29102H15V5.29102H9V4.29102ZM4 7.29102C3.44775 7.29102 3 7.73871 3 8.29102V14.291H21V8.29102C21 7.73871 20.5522 7.29102 20 7.29102H4ZM3 18.291V16.291H21V18.291C21 18.8433 20.5522 19.291 20 19.291H4C3.44775 19.291 3 18.8433 3 18.291Z" fill="#C34482"/>
</svg>
