<svg width="24" height="25" viewBox="0 0 24 25" fill="none" xmlns="http://www.w3.org/2000/svg">
<path fill-rule="evenodd" clip-rule="evenodd" d="M17.5354 3.1697C16.3638 1.99812 14.4644 1.99812 13.2928 3.1697L11.8786 4.58391C11.8183 4.64419 11.7611 4.70639 11.707 4.77033C11.653 4.7064 11.5958 4.64421 11.5355 4.58394L10.1213 3.16973C8.94975 1.99816 7.05025 1.99816 5.87868 3.16973C4.70711 4.3413 4.70711 6.2408 5.87868 7.41237L6.75732 8.29102H1V14.291H3V22.291H21V14.291H23V8.29102H16.6567L17.5354 7.41234C18.707 6.24076 18.707 4.34127 17.5354 3.1697ZM14.707 7.41234L16.1212 5.99812C16.5117 5.6076 16.5117 4.97443 16.1212 4.58391C15.7307 4.19338 15.0975 4.19338 14.707 4.58391L13.2928 5.99812C12.9023 6.38865 12.9023 7.02181 13.2928 7.41234C13.6833 7.80286 14.3165 7.80286 14.707 7.41234ZM10.1213 5.99816L8.70711 4.58394C8.31658 4.19342 7.68342 4.19342 7.29289 4.58394C6.90237 4.97447 6.90237 5.60763 7.29289 5.99816L8.70711 7.41237C9.09763 7.8029 9.7308 7.8029 10.1213 7.41237C10.5118 7.02185 10.5118 6.38868 10.1213 5.99816ZM21 10.291V12.291H3V10.291H21ZM12.9167 14.291H19V20.291H12.9167V14.291ZM11.0834 14.291V20.291H5V14.291H11.0834Z" fill="#C34482"/>
</svg>
